<svg xmlns="http://www.w3.org/2000/svg" viewBox="0 16.578571319580078 52.400001525878906 49.14285659790039" data-asc="1.263"><g fill="#646cff"><g fill="#646cff" transform="translate(0, 0)"><path d="M8.70 28.15L23.85 19.40L23.85 51.40Q23.85 52.70 23.23 54.20Q22.60 55.70 21.63 56.97Q20.65 58.25 19.50 58.90L8.70 65.15Q6.95 66.15 5.65 65.40Q4.35 64.65 4.35 62.65L4.35 50.65L8.70 48.15L8.70 60.15L19.50 53.90L19.50 21.90Q19.50 23.20 18.90 24.70Q18.30 26.20 17.30 27.47Q16.30 28.75 15.15 29.40L8.70 33.15L8.70 28.15M19.50 21.90L19.50 53.90L15.15 51.40L15.15 19.40L19.50 21.90M19.50 53.90L8.70 60.15L4.35 57.65L15.15 51.40L19.50 53.90M23.85 19.40L8.70 28.15L4.35 25.65L19.50 16.90L23.85 19.40M8.70 28.15L8.70 33.15L4.35 30.65L4.35 25.65L8.70 28.15M8.70 48.15L4.35 50.65L0 48.15L4.35 45.65L8.70 48.15M4.35 50.65L4.35 62.65Q4.35 64.65 5.65 65.40L1.30 62.90Q0 62.15 0 60.15L0 48.15L4.35 50.65ZM48.10 19.65Q49.80 18.65 51.10 19.40Q52.40 20.15 52.40 22.15L52.40 29.15Q52.40 30.45 51.80 31.95Q51.20 33.45 50.23 34.72Q49.25 36.00 48.10 36.65Q49.80 35.65 51.10 36.40Q52.40 37.15 52.40 39.15L52.40 49.15Q52.40 50.50 51.80 51.97Q51.20 53.45 50.23 54.72Q49.25 56.00 48.10 56.65L41.15 60.65Q39.45 61.65 38.15 60.90Q36.85 60.15 36.85 58.15L36.85 63.15L32.50 65.65L32.50 28.65L48.10 19.65M48.10 36.65L48.10 24.65L36.85 31.15L36.85 43.15L48.10 36.65M48.10 41.65L36.85 48.15L36.85 58.15L48.10 51.65L48.10 41.65M36.85 58.15Q36.85 60.15 38.15 60.90L33.80 58.40Q32.50 57.65 32.50 55.65L36.85 58.15M51.10 36.40Q49.80 35.65 48.10 36.65L43.75 34.15Q45.45 33.15 46.80 33.90L51.10 36.40M48.10 41.65L48.10 51.65L43.75 49.15L43.75 39.15L48.10 41.65M48.10 51.65L36.85 58.15L32.50 55.65L43.75 49.15L48.10 51.65M48.10 24.65L48.10 36.65L43.75 34.15L43.75 22.15L48.10 24.65M48.10 36.65L36.85 43.15L32.50 40.65L43.75 34.15L48.10 36.65M51.10 19.40Q49.80 18.65 48.10 19.65L32.50 28.65L28.15 26.15L43.75 17.15Q45.45 16.15 46.80 16.90L51.10 19.40M32.50 28.65L32.50 65.65L28.15 63.15L28.15 26.15L32.50 28.65Z"/></g></g></svg>